# xmcd
#
# Track frame offsets:
#	150
#	20507
#	47790
#	75735
#	100969
#	130566
#	161691
#	180679
#
# Disc length: 2568 seconds
#
# Revision: 0
# Processed by: cddbd v1.4PL0 Copyright (c) Steve Scherf et al.
# Submitted via: EasyCDDAExtractor 5.0.4.1
#
DISCID=5e0a0608
DTITLE=Go Graal Blues Band - White Traffic
DYEAR=1982
DGENRE=Blues
TTITLE0=Lonely
TTITLE1=Running For Long
TTITLE2=White Traffic
TTITLE3=Lover Eyes
TTITLE4=Emmily
TTITLE5=Ghetto Drunk
TTITLE6=N' Rol
TTITLE7=Hot River
EXTD=segurarte@hotmail.com\nPortugal - 1982
EXTT0=
EXTT1=
EXTT2=
EXTT3=
EXTT4=
EXTT5=
EXTT6=
EXTT7=
PLAYORDER=
